<?xml version="1.0" standalone="no"?>
<!DOCTYPE svg PUBLIC "-//W3C//DTD SVG 20010904//EN"
 "http://www.w3.org/TR/2001/REC-SVG-20010904/DTD/svg10.dtd">
<svg version="1.0" xmlns="http://www.w3.org/2000/svg"
 width="512.000000pt" height="512.000000pt" viewBox="0 0 512.000000 512.000000"
 preserveAspectRatio="xMidYMid meet">

<g transform="translate(0.000000,512.000000) scale(0.100000,-0.100000)"
fill="#ffcb7d" stroke="none">
<path d="M530 5111 c-69 -21 -130 -73 -166 -141 -16 -30 -19 -63 -22 -242 l-3
-208 -73 0 c-86 0 -159 -31 -206 -88 -64 -78 -60 35 -58 -1762 l3 -1635 22
-41 c12 -22 39 -56 59 -74 79 -69 25 -65 907 -68 l798 -3 -6 -32 c-21 -95 -73
-193 -146 -272 -40 -44 -43 -45 -103 -45 -96 -1 -180 -51 -222 -132 -23 -44
-29 -129 -13 -185 17 -62 96 -143 155 -161 31 -9 299 -12 1106 -12 1207 0
1124 -6 1201 80 147 163 39 409 -179 410 -60 0 -63 1 -103 45 -73 79 -125 177
-146 272 l-6 32 798 3 c882 3 828 -1 907 68 20 18 47 52 59 74 l22 41 3 1635
c2 1795 6 1679 -58 1760 -47 59 -118 90 -206 90 l-73 0 -3 208 c-3 179 -6 212
-22 242 -26 49 -74 98 -121 123 l-40 22 -2020 2 c-1111 1 -2031 -2 -2045 -6z
m4051 -190 l29 -29 0 -226 0 -226 -2050 0 -2050 0 0 226 0 226 29 29 29 29
1992 0 1992 0 29 -29z m-4241 -1819 c0 -1415 -5 -1319 79 -1403 85 -86 -102
-79 2141 -79 2243 0 2056 -7 2141 79 84 84 79 -12 79 1403 l0 1248 58 0 c60
-1 81 -10 100 -47 9 -16 12 -380 12 -1437 l0 -1416 -2065 0 -2066 0 -24 -25
c-25 -24 -32 -65 -19 -100 18 -47 -77 -45 2119 -45 l2055 0 0 -100 c0 -93 -2
-103 -24 -125 -13 -13 -39 -26 -57 -30 -19 -3 -1073 -4 -2342 -3 l-2309 3 -24
28 c-22 26 -24 37 -24 128 l0 99 184 0 c180 0 186 1 212 24 39 33 39 89 0 122
-26 23 -32 24 -212 24 l-184 0 0 1416 c0 1057 3 1421 12 1437 19 37 40 46 101
47 l57 0 0 -1248z m4268 -47 l-3 -1214 -23 -23 -23 -23 -1999 0 -1999 0 -23
23 -23 23 -3 1214 -2 1215 2050 0 2050 0 -2 -1215z m-1421 -2271 c14 -73 54
-174 88 -226 14 -21 25 -42 25 -48 0 -7 -243 -10 -740 -10 -530 0 -740 3 -740
11 0 6 9 24 20 39 32 44 68 133 86 208 9 37 18 73 20 80 3 10 131 12 616 10
l612 -3 13 -61z m443 -449 c55 -28 60 -105 10 -150 -22 -20 -36 -20 -1080 -20
l-1058 0 -25 23 c-48 45 -42 118 12 147 40 22 2098 22 2141 0z"/>
<path d="M716 4758 c-40 -35 -43 -78 -11 -116 l27 -32 119 0 c114 0 121 1 144
25 25 24 32 65 19 100 -13 32 -59 45 -168 45 -95 0 -107 -2 -130 -22z"/>
<path d="M3632 4770 c-31 -13 -55 -71 -43 -104 33 -85 161 -67 161 24 0 21 -8
47 -17 59 -21 25 -68 35 -101 21z"/>
<path d="M3973 4770 c-50 -20 -60 -105 -17 -139 71 -56 164 12 129 95 -19 46
-63 64 -112 44z"/>
<path d="M4315 4768 c-78 -42 -49 -158 39 -158 47 0 90 50 82 94 -11 59 -72
91 -121 64z"/>
<path d="M1164 4090 c-57 -22 -54 34 -54 -1062 l0 -1007 24 -27 c33 -39 89
-39 122 0 l24 27 0 1009 0 1009 -22 24 c-26 29 -63 39 -94 27z"/>
<path d="M2357 4087 c-24 -8 -47 -47 -167 -288 -77 -153 -140 -290 -140 -303
0 -40 41 -80 83 -80 19 0 43 6 52 14 30 25 285 546 285 583 0 56 -56 93 -113
74z"/>
<path d="M1688 3942 c-197 -197 -196 -177 -10 -365 139 -142 175 -168 218
-159 33 6 64 48 64 85 0 25 -19 49 -110 141 l-109 111 109 111 c120 121 131
145 89 198 -16 21 -29 26 -62 26 -40 0 -46 -5 -189 -148z"/>
<path d="M2589 4071 c-18 -14 -24 -29 -24 -60 0 -39 6 -47 107 -148 l108 -107
-110 -112 c-92 -93 -110 -116 -110 -142 0 -47 39 -86 84 -86 34 0 48 11 188
152 201 200 200 174 3 372 -138 139 -153 150 -186 150 -21 0 -47 -8 -60 -19z"/>
<path d="M1670 3147 c-54 -27 -63 -94 -20 -137 20 -20 37 -20 865 -20 l846 0
24 25 c42 41 31 105 -22 133 -33 18 -1658 17 -1693 -1z"/>
<path d="M2104 2811 c-53 -23 -69 -89 -33 -135 20 -26 22 -26 144 -26 140 0
161 9 171 71 5 29 1 41 -19 65 -24 28 -27 29 -133 31 -60 2 -119 -1 -130 -6z"/>
<path d="M2623 2813 c-31 -6 -63 -50 -63 -85 0 -17 10 -39 25 -53 l24 -25 591
0 591 0 24 25 c32 31 32 75 1 112 l-24 28 -574 1 c-315 1 -583 0 -595 -3z"/>
<path d="M2071 2444 c-28 -35 -26 -77 3 -111 l24 -28 847 0 847 0 24 28 c31
37 31 81 -1 112 l-24 25 -850 0 -850 0 -20 -26z"/>
<path d="M1650 2110 c-28 -28 -36 -69 -19 -99 26 -46 50 -51 251 -51 186 0
187 0 217 26 40 33 43 83 6 119 -24 25 -25 25 -230 25 -191 0 -206 -1 -225
-20z"/>
<path d="M2333 2108 c-29 -32 -34 -53 -21 -88 20 -60 19 -60 552 -60 l484 0
31 26 c40 33 43 83 6 119 l-24 25 -504 0 -504 0 -20 -22z"/>
</g>
</svg>
