<?xml version="1.0" standalone="no"?>
<!DOCTYPE svg PUBLIC "-//W3C//DTD SVG 20010904//EN"
 "http://www.w3.org/TR/2001/REC-SVG-20010904/DTD/svg10.dtd">
<svg version="1.0" xmlns="http://www.w3.org/2000/svg"
 width="512.000000pt" height="512.000000pt" viewBox="0 0 512.000000 512.000000"
 preserveAspectRatio="xMidYMid meet">

<g transform="translate(0.000000,512.000000) scale(0.100000,-0.100000)"
fill="#ffcb7d" stroke="none">
<path d="M344 4549 c-93 -27 -184 -125 -203 -222 -8 -36 -11 -571 -9 -1797 l3
-1745 28 -57 c30 -61 74 -105 140 -140 l42 -23 2215 0 2215 0 42 23 c66 35
110 79 140 140 l28 57 0 1775 0 1775 -28 57 c-30 61 -74 105 -140 140 l-42 23
-2200 2 c-1303 1 -2213 -2 -2231 -8z m4413 -169 c67 -41 68 -42 71 -372 l3
-298 -2271 0 -2271 0 3 298 c3 330 4 331 71 372 31 20 69 20 2197 20 2128 0
2166 0 2197 -20z m68 -2200 c0 -1300 -1 -1367 -18 -1393 -10 -16 -32 -37 -50
-47 -31 -20 -69 -20 -2197 -20 -2128 0 -2166 0 -2197 20 -18 10 -40 31 -50 47
-17 26 -18 95 -21 1382 -1 746 0 1362 3 1368 3 11 454 13 2267 11 l2263 -3 0
-1365z"/>
<path d="M581 4104 c-27 -35 -26 -66 2 -100 17 -20 33 -27 57 -27 39 0 80 40
80 79 0 66 -98 100 -139 48z"/>
<path d="M901 4104 c-27 -35 -26 -66 2 -100 17 -20 33 -27 57 -27 39 0 80 40
80 79 0 66 -98 100 -139 48z"/>
<path d="M1221 4104 c-27 -35 -26 -66 2 -100 17 -20 33 -27 57 -27 39 0 80 40
80 79 0 66 -98 100 -139 48z"/>
<path d="M3360 4110 c-28 -28 -27 -90 1 -116 20 -18 47 -19 581 -22 l559 -2
31 30 c25 26 29 36 24 62 -3 18 -14 40 -23 50 -15 17 -48 18 -585 18 -555 0
-568 0 -588 -20z"/>
<path d="M897 3060 c-62 -16 -112 -47 -155 -95 -69 -78 -72 -97 -72 -450 0
-346 -2 -337 68 -351 26 -5 36 -1 62 24 28 29 30 35 30 106 l0 76 130 0 130 0
0 -76 c0 -71 2 -77 30 -106 26 -25 36 -29 62 -24 70 14 68 5 68 351 0 356 -3
373 -76 454 -68 76 -184 114 -277 91z m113 -166 c69 -28 80 -58 80 -223 l0
-141 -130 0 -130 0 0 141 c0 162 8 186 75 219 48 24 54 24 105 4z"/>
<path d="M1460 3058 c-49 -26 -50 -36 -50 -451 l0 -389 30 -30 c26 -25 36 -29
62 -24 64 13 68 24 68 178 l0 138 89 0 c126 0 182 20 252 90 43 43 59 68 73
114 45 142 -18 287 -152 353 -53 26 -67 28 -202 31 -105 2 -152 -1 -170 -10z
m314 -172 c62 -40 81 -113 48 -175 -28 -53 -72 -71 -169 -71 l-83 0 0 128 c0
71 3 132 8 136 14 15 168 1 196 -18z"/>
<path d="M3338 3060 c-82 -25 -130 -85 -142 -175 -7 -56 -42 -100 -86 -110
-16 -4 -47 2 -79 15 -65 25 -121 26 -169 1 -53 -27 -70 -49 -157 -201 -63
-109 -79 -145 -83 -187 -6 -69 24 -133 83 -173 48 -33 55 -46 55 -102 0 -35
-6 -46 -64 -101 -105 -101 -104 -154 6 -344 102 -175 97 -168 142 -197 47 -31
124 -35 183 -11 84 35 155 1 168 -81 3 -21 8 -48 10 -60 8 -39 50 -89 95 -111
41 -21 58 -23 220 -23 162 0 179 2 220 23 45 22 87 72 95 111 2 12 7 39 10 60
13 82 84 116 168 81 54 -22 132 -19 178 7 41 23 57 45 159 221 96 167 96 223
-6 323 -58 57 -64 67 -64 104 0 53 10 70 59 104 56 39 85 101 79 169 -4 42
-20 78 -83 187 -91 157 -106 176 -160 201 -52 24 -102 24 -165 -1 -59 -23 -93
-19 -132 18 -19 18 -29 39 -33 71 -9 73 -42 128 -94 159 -45 26 -51 27 -216
29 -93 1 -182 -2 -197 -7z m326 -156 c10 -4 18 -24 22 -55 15 -109 107 -206
219 -229 45 -9 64 -8 112 5 32 9 67 18 78 21 17 4 31 -15 90 -117 39 -67 71
-128 73 -136 2 -8 -17 -32 -43 -55 -59 -52 -86 -107 -93 -184 -7 -96 36 -193
107 -239 17 -11 31 -26 31 -33 0 -6 -32 -68 -71 -137 -76 -134 -80 -136 -142
-110 -55 23 -143 19 -202 -9 -90 -42 -137 -106 -161 -221 l-9 -40 -155 0 -155
0 -9 40 c-24 115 -71 179 -161 221 -59 28 -147 32 -202 9 -62 -26 -66 -24
-142 110 -39 69 -71 131 -71 137 0 7 14 22 31 33 17 11 43 38 58 60 83 120 65
267 -43 362 -26 23 -46 48 -44 56 2 8 35 69 73 136 59 102 73 121 90 117 11
-3 46 -12 78 -21 146 -41 295 56 328 214 6 31 16 59 23 63 13 9 268 11 290 2z"/>
<path d="M3403 2516 c-208 -68 -327 -289 -265 -493 53 -174 203 -287 382 -287
176 0 328 113 380 282 46 149 5 298 -111 407 -75 71 -145 98 -254 102 -57 2
-106 -2 -132 -11z m243 -182 c30 -18 60 -48 79 -78 26 -43 30 -59 30 -120 0
-86 -27 -143 -92 -192 -61 -47 -134 -61 -204 -41 -212 63 -242 343 -47 442 74
37 164 33 234 -11z"/>
<path d="M2182 3037 c-22 -23 -22 -26 -22 -419 0 -218 3 -404 6 -413 10 -25
62 -47 95 -40 59 13 59 11 59 446 0 386 -1 397 -21 423 -27 35 -86 36 -117 3z"/>
<path d="M853 1817 c-166 -166 -183 -186 -183 -217 0 -31 17 -51 183 -217 197
-198 210 -206 261 -161 14 13 28 36 32 51 6 26 -6 40 -142 178 l-148 149 141
143 c78 78 142 149 143 157 5 34 -1 52 -25 75 -49 50 -63 41 -262 -158z"/>
<path d="M1560 1988 c-22 -11 -40 -57 -137 -343 -61 -182 -112 -344 -112 -360
-1 -39 21 -71 55 -79 32 -8 80 9 89 32 23 55 225 670 225 684 0 24 -40 66 -70
73 -14 3 -36 0 -50 -7z"/>
<path d="M1869 1971 c-53 -53 -45 -68 113 -228 l142 -143 -142 -143 c-158
-160 -166 -175 -113 -228 55 -55 65 -49 268 154 166 166 183 186 183 217 0 31
-17 51 -183 217 -203 203 -213 209 -268 154z"/>
</g>
</svg>
