<?xml version="1.0" standalone="no"?>
<!DOCTYPE svg PUBLIC "-//W3C//DTD SVG 20010904//EN"
 "http://www.w3.org/TR/2001/REC-SVG-20010904/DTD/svg10.dtd">
<svg version="1.0" xmlns="http://www.w3.org/2000/svg"
 width="512.000000pt" height="512.000000pt" viewBox="0 0 512.000000 512.000000"
 preserveAspectRatio="xMidYMid meet">

<g transform="translate(0.000000,512.000000) scale(0.100000,-0.100000)"
fill="#1544ed" stroke="none">
<path d="M350 5109 c-163 -32 -310 -182 -340 -349 -7 -37 -9 -795 -8 -2235 l3
-2180 23 -57 c47 -117 143 -213 260 -260 l57 -23 2215 0 2215 0 57 23 c117 47
214 144 259 260 22 53 23 74 27 329 l4 272 -26 26 c-30 30 -65 32 -97 6 -24
-19 -24 -20 -29 -288 -5 -258 -6 -270 -29 -315 -29 -57 -81 -109 -141 -140
l-45 -23 -2195 0 -2195 0 -45 23 c-60 31 -112 83 -141 140 l-24 47 -3 1808 -2
1807 199 0 c185 0 200 1 225 21 19 15 26 30 26 54 0 24 -7 39 -26 54 -25 20
-40 21 -226 21 l-199 0 3 313 c3 307 3 313 27 359 29 57 81 109 141 140 l45
23 1910 2 c1419 2 1916 6 1932 14 44 23 47 94 5 125 -14 11 -366 13 -1917 13
-1048 -1 -1920 -5 -1945 -10z"/>
<path d="M4478 5100 c-35 -27 -38 -78 -7 -106 18 -16 42 -20 153 -24 111 -5
138 -9 178 -29 57 -29 108 -81 140 -141 22 -44 23 -52 26 -357 l3 -313 -2058
0 c-1602 -1 -2062 -3 -2074 -13 -31 -24 -42 -56 -28 -88 6 -17 20 -34 30 -39
11 -6 776 -10 2073 -10 l2056 0 0 -1395 0 -1396 25 -24 c31 -32 69 -32 101 0
l24 24 -2 1793 -3 1793 -23 57 c-47 117 -145 215 -260 259 -45 17 -85 23 -192
26 -127 5 -137 4 -162 -17z"/>
<path d="M561 4594 c-12 -15 -21 -34 -21 -44 0 -10 9 -29 21 -44 41 -52 129
-23 129 44 0 67 -88 96 -129 44z"/>
<path d="M881 4594 c-24 -31 -26 -43 -10 -78 16 -34 57 -47 96 -31 73 31 49
135 -32 135 -24 0 -39 -7 -54 -26z"/>
<path d="M1200 4600 c-45 -45 -11 -120 54 -120 37 0 76 36 76 70 0 10 -9 29
-21 44 -26 33 -79 36 -109 6z"/>
<path d="M1590 4600 c-38 -38 -22 -100 31 -119 45 -16 2173 -16 2218 0 53 19
69 81 31 119 -20 20 -33 20 -1140 20 -1107 0 -1120 0 -1140 -20z"/>
<path d="M4150 4600 c-22 -22 -26 -60 -10 -90 16 -30 67 -40 205 -40 138 0
189 10 205 40 16 30 12 68 -10 90 -18 18 -33 20 -195 20 -162 0 -177 -2 -195
-20z"/>
<path d="M605 3630 c-49 -19 -64 -82 -30 -120 16 -18 31 -20 127 -20 95 0 110
2 128 20 38 38 22 100 -31 119 -37 13 -164 14 -194 1z"/>
<path d="M1064 3626 c-48 -21 -60 -80 -24 -116 19 -19 33 -20 520 -20 l499 0
21 22 c37 40 21 97 -34 118 -44 16 -943 13 -982 -4z"/>
<path d="M605 3270 c-49 -19 -64 -82 -30 -120 16 -18 31 -20 127 -20 95 0 110
2 128 20 38 38 22 100 -31 119 -37 13 -164 14 -194 1z"/>
<path d="M1064 3266 c-48 -21 -60 -80 -24 -116 19 -19 33 -20 523 -20 565 0
547 -2 547 69 0 26 -7 44 -21 57 -20 18 -45 19 -508 21 -393 2 -492 0 -517
-11z"/>
<path d="M2314 3266 c-48 -21 -60 -80 -24 -116 18 -18 33 -20 195 -20 162 0
177 2 195 20 38 38 22 100 -31 119 -46 16 -296 14 -335 -3z"/>
<path d="M2909 3269 c-25 -9 -49 -45 -49 -73 0 -7 9 -25 21 -40 l20 -26 525 0
c511 0 525 1 544 20 25 25 26 71 1 101 l-19 24 -509 2 c-310 1 -518 -2 -534
-8z"/>
<path d="M605 2910 c-49 -19 -64 -82 -30 -120 16 -18 31 -20 127 -20 95 0 110
2 128 20 38 38 22 100 -31 119 -37 13 -164 14 -194 1z"/>
<path d="M1955 2911 c-49 -20 -64 -83 -30 -121 18 -20 30 -20 545 -20 515 0
527 0 545 20 25 28 23 76 -4 103 l-22 22 -507 2 c-279 1 -516 -2 -527 -6z"/>
<path d="M3254 2913 c-53 -11 -75 -83 -39 -123 17 -19 30 -20 196 -20 l178 0
20 26 c27 35 26 57 -3 91 l-24 28 -154 1 c-84 1 -163 0 -174 -3z"/>
<path d="M605 2550 c-49 -19 -64 -82 -30 -120 16 -18 31 -20 127 -20 95 0 110
2 128 20 38 38 22 100 -31 119 -37 13 -164 14 -194 1z"/>
<path d="M1064 2546 c-48 -21 -60 -80 -24 -116 18 -18 33 -20 195 -20 162 0
177 2 195 20 38 38 22 100 -31 119 -46 16 -296 14 -335 -3z"/>
<path d="M1631 2549 c-52 -21 -67 -78 -31 -117 l21 -22 524 0 c512 0 526 1
545 20 38 38 22 100 -31 119 -41 14 -993 14 -1028 0z"/>
<path d="M2919 2549 c-25 -9 -49 -45 -49 -73 0 -7 9 -25 21 -40 l20 -26 178 0
c200 0 211 4 211 72 0 65 -20 73 -199 75 -86 1 -168 -2 -182 -8z"/>
<path d="M3504 2546 c-48 -21 -60 -80 -24 -116 19 -19 33 -20 528 -20 480 0
510 1 525 18 24 27 22 85 -4 108 -20 18 -45 19 -508 21 -393 2 -492 0 -517
-11z"/>
<path d="M605 2190 c-49 -19 -64 -82 -30 -120 16 -18 31 -20 127 -20 95 0 110
2 128 20 38 38 22 100 -31 119 -37 13 -164 14 -194 1z"/>
<path d="M1064 2186 c-48 -21 -60 -80 -24 -116 18 -18 33 -20 195 -20 162 0
177 2 195 20 38 38 22 100 -31 119 -46 16 -296 14 -335 -3z"/>
<path d="M614 1833 c-53 -10 -75 -83 -39 -123 16 -18 31 -20 127 -20 95 0 110
2 128 20 38 38 22 100 -31 119 -31 11 -140 13 -185 4z"/>
<path d="M1964 1834 c-53 -12 -75 -84 -39 -124 17 -19 30 -20 195 -20 165 0
178 1 195 20 25 28 23 76 -4 103 -20 21 -31 22 -174 24 -83 0 -162 -1 -173 -3z"/>
<path d="M2555 1833 c-36 -9 -55 -34 -55 -73 0 -73 -26 -70 563 -70 l526 0 20
26 c27 35 26 57 -3 91 l-24 28 -504 2 c-276 0 -512 -1 -523 -4z"/>
<path d="M614 1473 c-53 -10 -75 -83 -39 -123 16 -18 31 -20 127 -20 95 0 110
2 128 20 38 38 22 100 -31 119 -31 11 -140 13 -185 4z"/>
<path d="M1064 1466 c-48 -21 -60 -80 -24 -116 18 -18 33 -20 195 -20 162 0
177 2 195 20 38 38 22 100 -31 119 -46 16 -296 14 -335 -3z"/>
<path d="M614 1113 c-53 -10 -75 -83 -39 -123 16 -18 31 -20 127 -20 95 0 110
2 128 20 38 38 22 100 -31 119 -31 11 -140 13 -185 4z"/>
<path d="M1064 1106 c-48 -21 -60 -80 -24 -116 19 -19 33 -20 523 -20 565 0
547 -2 547 69 0 26 -7 44 -21 57 -20 18 -45 19 -508 21 -393 2 -492 0 -517
-11z"/>
<path d="M2314 1106 c-48 -21 -60 -80 -24 -116 18 -18 33 -20 195 -20 162 0
177 2 195 20 38 38 22 100 -31 119 -46 16 -296 14 -335 -3z"/>
<path d="M2909 1109 c-25 -9 -49 -45 -49 -73 0 -7 9 -25 21 -40 l20 -26 525 0
c511 0 525 1 544 20 25 25 26 71 1 101 l-19 24 -509 2 c-310 1 -518 -2 -534
-8z"/>
<path d="M4174 1111 c-26 -11 -54 -49 -54 -72 0 -9 9 -28 21 -43 l20 -26 178
0 c200 0 211 4 211 72 0 65 -20 73 -199 75 -86 2 -166 -1 -177 -6z"/>
<path d="M614 753 c-53 -10 -75 -83 -39 -123 16 -18 31 -20 127 -20 95 0 110
2 128 20 38 38 22 100 -31 119 -31 11 -140 13 -185 4z"/>
<path d="M1064 746 c-48 -21 -60 -80 -24 -116 19 -19 33 -20 520 -20 l499 0
21 22 c37 40 21 97 -34 118 -44 16 -943 13 -982 -4z"/>
</g>
</svg>
